ffmpeg version N-55863-g9f38fac053-static https://johnvansickle.com/ffmpeg/  Copyright (c) 2000-2021 the FFmpeg developers
  built with gcc 8 (Debian 8.3.0-6)
  configuration: --enable-gpl --enable-version3 --enable-static --disable-debug --disable-ffplay --disable-indev=sndio --disable-outdev=sndio --cc=gcc --enable-fontconfig --enable-frei0r --enable-gnutls --enable-gmp --enable-libgme --enable-gray --enable-libaom --enable-libfribidi --enable-libass --enable-libvmaf --enable-libfreetype --enable-libmp3lame --enable-libopencore-amrnb --enable-libopencore-amrwb --enable-libopenjpeg --enable-librubberband --enable-libsoxr --enable-libspeex --enable-libsrt --enable-libvorbis --enable-libopus --enable-libtheora --enable-libvidstab --enable-libvo-amrwbenc --enable-libvpx --enable-libwebp --enable-libx264 --enable-libx265 --enable-libxml2 --enable-libdav1d --enable-libxvid --enable-libzvbi --enable-libzimg
  libavutil      56. 64.100 / 56. 64.100
  libavcodec     58.119.100 / 58.119.100
  libavformat    58. 65.101 / 58. 65.101
  libavdevice    58. 11.103 / 58. 11.103
  libavfilter     7.100.100 /  7.100.100
  libswscale      5.  8.100 /  5.  8.100
  libswresample   3.  8.100 /  3.  8.100
  libpostproc    55.  8.100 / 55.  8.100
Input #0, mov,mp4,m4a,3gp,3g2,mj2, from '/home/yiaapc5/public_html/f_data/data_userfiles/user_uploads/3631926655/v/1613862747.mp4':
  Metadata:
    major_brand     : mp42
    minor_version   : 0
    compatible_brands: isommp42
    creation_time   : 2018-05-24T15:12:38.000000Z
  Duration: 00:01:04.37, start: 0.000000, bitrate: 1154 kb/s
    Stream #0:0(und): Video: h264 (Main) (avc1 / 0x31637661), yuv420p(tv, bt709), 1280x720 [SAR 1:1 DAR 16:9], 1025 kb/s, 25 fps, 25 tbr, 90k tbn, 50 tbc (default)
    Metadata:
      creation_time   : 2018-05-24T15:12:38.000000Z
      handler_name    : ISO Media file produced by Google Inc. Created on: 05/24/2018.
      vendor_id       : [0][0][0][0]
    Stream #0:1(eng): Audio: aac (LC) (mp4a / 0x6134706D), 44100 Hz, stereo, fltp, 125 kb/s (default)
    Metadata:
      creation_time   : 2018-05-24T15:12:38.000000Z
      handler_name    : ISO Media file produced by Google Inc. Created on: 05/24/2018.
      vendor_id       : [0][0][0][0]
Codec AVOption rc_eq (Set rate control equation. When computing the expression, besides the standard functions defined in the section 'Expression Evaluation', the following functions are available: bits2qp(bits), qp2bits(qp). Also the following constants are available: iTex pTex tex mv fCode iCount mcVar var isI isP isB avgQP qComp avgIITex avgPITex avgPPTex avgBPTex avgTex.) specified for output file #0 (/home/yiaapc5/public_html/f_data/data_userfiles/user_media/3631926655/v/57523457d7f5abf37b1a459810460c67.mob.nomob.mp4) has not been used for any stream. The most likely reason is either wrong type (e.g. a video option with no video streams) or that it is a private option of some encoder which was not actually used for any stream.
Stream mapping:
  Stream #0:0 -> #0:0 (h264 (native) -> h264 (libx264))
  Stream #0:1 -> #0:1 (aac (native) -> aac (native))
Press [q] to stop, [?] for help
[libx264 @ 0x5fed940] Application has requested 32 threads. Using a thread count greater than 16 is not recommended.
[libx264 @ 0x5fed940] using SAR=136/135
[libx264 @ 0x5fed940] frame MB size (30x17) > level limit (396)
[libx264 @ 0x5fed940] VBV bitrate (10000) > level limit (768)
[libx264 @ 0x5fed940] VBV buffer (10000) > level limit (2000)
[libx264 @ 0x5fed940] MB rate (12750) > level limit (11880)
[libx264 @ 0x5fed940] using cpu capabilities: MMX2 SSE2Fast SSSE3 SSE4.2 AVX
[libx264 @ 0x5fed940] profile Constrained Baseline, level 1.3, 4:2:0, 8-bit
[libx264 @ 0x5fed940] 264 - core 161 r3040 35417dc - H.264/MPEG-4 AVC codec - Copyleft 2003-2021 - http://www.videolan.org/x264.html - options: cabac=0 ref=1 deblock=1:0:0 analyse=0x1:0 me=hex subme=1 psy=1 psy_rd=1.00:0.00 mixed_ref=0 me_range=16 chroma_me=1 trellis=0 8x8dct=0 cqm=0 deadzone=21,11 fast_pskip=1 chroma_qp_offset=0 threads=32 lookahead_threads=2 sliced_threads=0 nr=0 decimate=1 interlaced=0 bluray_compat=0 constrained_intra=0 bframes=0 weightp=0 keyint=300 keyint_min=25 scenecut=40 intra_refresh=0 rc_lookahead=30 rc=abr mbtree=1 bitrate=1000 ratetol=1.0 qcomp=0.60 qpmin=10 qpmax=51 qpstep=4 vbv_maxrate=10000 vbv_bufsize=10000 nal_hrd=none filler=0 ip_ratio=1.41 aq=1:1.00
Output #0, mp4, to '/home/yiaapc5/public_html/f_data/data_userfiles/user_media/3631926655/v/57523457d7f5abf37b1a459810460c67.mob.nomob.mp4':
  Metadata:
    major_brand     : mp42
    minor_version   : 0
    compatible_brands: isommp42
    encoder         : Lavf58.65.101
    Stream #0:0(und): Video: h264 (avc1 / 0x31637661), yuv420p(tv, bt709, progressive), 480x272 [SAR 136:135 DAR 16:9], q=2-31, 1000 kb/s, 25 fps, 12800 tbn (default)
    Metadata:
      creation_time   : 2018-05-24T15:12:38.000000Z
      handler_name    : ISO Media file produced by Google Inc. Created on: 05/24/2018.
      vendor_id       : [0][0][0][0]
      encoder         : Lavc58.119.100 libx264
    Side data:
      cpb: bitrate max/min/avg: 10000000/0/1000000 buffer size: 10000000 vbv_delay: N/A
    Stream #0:1(eng): Audio: aac (LC) (mp4a / 0x6134706D), 44100 Hz, stereo, fltp, 125 kb/s (default)
    Metadata:
      creation_time   : 2018-05-24T15:12:38.000000Z
      handler_name    : ISO Media file produced by Google Inc. Created on: 05/24/2018.
      vendor_id       : [0][0][0][0]
      encoder         : Lavc58.119.100 aac
frame=    1 fps=0.0 q=0.0 size=       0kB time=00:00:00.41 bitrate=   0.9kbits/s speed=12.2x    frame=  188 fps=0.0 q=14.0 size=     512kB time=00:00:07.94 bitrate= 528.2kbits/s speed=14.9x    frame=  386 fps=373 q=22.0 size=    2048kB time=00:00:15.71 bitrate=1067.3kbits/s speed=15.2x    frame=  582 fps=379 q=26.0 size=    3328kB time=00:00:23.80 bitrate=1145.5kbits/s speed=15.5x    frame=  790 fps=388 q=25.0 size=    4352kB time=00:00:32.04 bitrate=1112.6kbits/s speed=15.7x    frame=  994 fps=392 q=24.0 size=    5376kB time=00:00:40.07 bitrate=1098.9kbits/s speed=15.8x    frame= 1197 fps=394 q=23.0 size=    6144kB time=00:00:47.99 bitrate=1048.7kbits/s speed=15.8x    frame= 1390 fps=393 q=23.0 size=    7424kB time=00:00:55.86 bitrate=1088.6kbits/s speed=15.8x    frame= 1592 fps=394 q=24.0 size=    8448kB time=00:01:03.90 bitrate=1083.0kbits/s speed=15.8x    frame= 1609 fps=393 q=-1.0 Lsize=    9031kB time=00:01:04.34 bitrate=1149.8kbits/s speed=15.7x    
video:8006kB audio:983kB subtitle:0kB other streams:0kB global headers:0kB muxing overhead: 0.463884%
[libx264 @ 0x5fed940] frame I:18    Avg QP:14.11  size: 29710
[libx264 @ 0x5fed940] frame P:1591  Avg QP:17.70  size:  4816
[libx264 @ 0x5fed940] mb I  I16..4: 18.3%  0.0% 81.7%
[libx264 @ 0x5fed940] mb P  I16..4:  2.1%  0.0%  0.0%  P16..4: 65.4%  0.0%  0.0%  0.0%  0.0%    skip:32.5%
[libx264 @ 0x5fed940] final ratefactor: 17.43
[libx264 @ 0x5fed940] coded y,uvDC,uvAC intra: 46.8% 66.1% 52.4% inter: 36.9% 11.5% 2.0%
[libx264 @ 0x5fed940] i16 v,h,dc,p: 74% 14%  8%  5%
[libx264 @ 0x5fed940] i4 v,h,dc,ddl,ddr,vr,hd,vl,hu: 21% 19%  9%  8%  8%  9%  8%  9% 10%
[libx264 @ 0x5fed940] i8c dc,h,v,p: 52% 20% 21%  7%
[libx264 @ 0x5fed940] kb/s:1018.97
[aac @ 0x6003580] Qavg: 842.943
